<svg class="iconLeft" viewBox="0 0 33.6 33.6" xmlns="http://www.w3.org/2000/svg" data-v-fde0c5aa="" style="max-height: 500px" width="33.6" height="33.6"><defs data-v-fde0c5aa=""/><rect class="logo-background-square" height="300px" width="300px" y="0" x="0" fill="#F8FAFF" data-v-fde0c5aa=""/><defs data-v-fde0c5aa=""/><g fill="#FFFFFF" id="e1c86945-1edc-4508-977a-1accd71ffaf3" data-v-fde0c5aa=""><path d=""/></g><defs data-v-fde0c5aa=""/><g fill="#011014" stroke="none" id="72ca4708-ced4-45d5-8490-498433968cfe" data-v-fde0c5aa=""><path d="M2 .001a2 2 0 00-2 2v28a2 2 0 002 2h28a2 2 0 002-2v-28a2 2 0 00-2-2H2zm17.465 8.543a1.906 1.906 0 010 2.698l-4.801 4.746 4.801 4.746a1.907 1.907 0 010 2.699 1.943 1.943 0 01-2.727 0l-6.156-6.096a1.907 1.907 0 010-2.699l6.156-6.095a1.942 1.942 0 012.727.001z"/></g></svg>