<svg style="max-height: 500px" data-v-fde0c5aa="" xmlns="http://www.w3.org/2000/svg" viewBox="0.8064 0.8064 30.4416 30.4416" class="iconLeft" width="30.4416" height="30.4416"><defs data-v-fde0c5aa=""/><rect data-v-fde0c5aa="" fill="#F8FAFF" x="0" y="0" width="300px" height="300px" class="logo-background-square"/><defs data-v-fde0c5aa=""/><g data-v-fde0c5aa="" id="e1c86945-1edc-4508-977a-1accd71ffaf3" fill="#FFFFFF"><path d=""/></g><defs data-v-fde0c5aa=""/><g data-v-fde0c5aa="" id="72ca4708-ced4-45d5-8490-498433968cfe" stroke="none" fill="#011014"><path d="M2 .001a2 2 0 00-2 2v28a2 2 0 002 2h28a2 2 0 002-2v-28a2 2 0 00-2-2H2zm17.465 8.543a1.906 1.906 0 010 2.698l-4.801 4.746 4.801 4.746a1.907 1.907 0 010 2.699 1.943 1.943 0 01-2.727 0l-6.156-6.096a1.907 1.907 0 010-2.699l6.156-6.095a1.942 1.942 0 012.727.001z"/></g></svg>