<?xml version="1.0" standalone="no"?>
<!DOCTYPE svg PUBLIC "-//W3C//DTD SVG 20010904//EN"
 "http://www.w3.org/TR/2001/REC-SVG-20010904/DTD/svg10.dtd">
<svg version="1.0" xmlns="http://www.w3.org/2000/svg"
 width="512.000000pt" height="512.000000pt" viewBox="0 0 512.000000 512.000000"
 preserveAspectRatio="xMidYMid meet">

<g transform="translate(0.000000,512.000000) scale(0.100000,-0.100000)"
fill="#000000" stroke="none">
<path d="M78 4789 c-23 -12 -46 -35 -58 -59 -20 -39 -20 -55 -20 -2170 0
-2116 0 -2131 20 -2170 13 -26 34 -47 60 -60 39 -20 53 -20 2480 -20 2427 0
2441 0 2480 20 26 13 47 34 60 60 20 39 20 54 20 2170 0 2116 0 2131 -20 2170
-13 26 -34 47 -60 60 -39 20 -53 20 -2482 20 -2413 -1 -2443 -1 -2480 -21z
m4742 -729 l0 -450 -2260 0 -2260 0 0 450 0 450 2260 0 2260 0 0 -450z m0
-2100 l0 -1350 -2260 0 -2260 0 0 1350 0 1350 2260 0 2260 0 0 -1350z"/>
<path d="M688 4189 c-43 -22 -78 -81 -78 -129 0 -50 35 -107 80 -130 38 -20
57 -20 820 -20 763 0 782 0 820 20 45 23 80 80 80 130 0 50 -35 107 -80 130
-38 20 -57 20 -822 20 -760 -1 -784 -1 -820 -21z"/>
<path d="M3088 4189 c-43 -22 -78 -81 -78 -129 0 -50 35 -107 80 -130 21 -11
53 -20 70 -20 50 0 107 35 130 80 11 21 20 53 20 70 0 50 -35 107 -80 130 -49
25 -94 25 -142 -1z"/>
<path d="M3688 4189 c-43 -22 -78 -81 -78 -129 0 -50 35 -107 80 -130 21 -11
53 -20 70 -20 17 0 49 9 70 20 45 23 80 80 80 130 0 50 -35 107 -80 130 -49
25 -94 25 -142 -1z"/>
<path d="M4288 4189 c-43 -22 -78 -81 -78 -129 0 -50 35 -107 80 -130 21 -11
53 -20 70 -20 50 0 107 35 130 80 11 21 20 53 20 70 0 50 -35 107 -80 130 -49
25 -94 25 -142 -1z"/>
<path d="M688 2989 c-43 -22 -78 -81 -78 -129 0 -50 35 -107 80 -130 39 -20
55 -20 1870 -20 1815 0 1831 0 1870 20 45 23 80 80 80 130 0 50 -35 107 -80
130 -39 20 -54 20 -1872 20 -1805 -1 -1834 -1 -1870 -21z"/>
<path d="M1579 2381 c-57 -37 -632 -616 -653 -658 -24 -48 -20 -93 13 -144 37
-57 616 -632 658 -653 68 -34 153 -6 192 64 25 45 27 89 5 133 -9 18 -129 146
-267 285 l-251 252 251 253 c138 138 258 266 267 284 34 68 6 153 -64 192 -52
29 -97 27 -151 -8z"/>
<path d="M2785 2387 c-39 -21 -52 -46 -357 -655 -236 -470 -318 -642 -318
-668 0 -53 34 -111 80 -134 51 -26 95 -25 145 3 39 21 52 46 358 655 235 470
317 642 317 668 0 53 -34 111 -80 134 -51 26 -95 25 -145 -3z"/>
<path d="M3389 2388 c-69 -39 -97 -124 -63 -191 9 -18 129 -146 267 -284 l251
-253 -251 -252 c-138 -139 -258 -267 -267 -285 -22 -44 -20 -88 5 -133 39 -70
124 -98 192 -64 42 21 621 596 658 653 18 29 29 58 29 81 0 23 -11 52 -29 81
-37 57 -616 632 -658 653 -43 22 -91 20 -134 -6z"/>
</g>
</svg>
