<?xml version="1.0" standalone="no"?>
<!DOCTYPE svg PUBLIC "-//W3C//DTD SVG 20010904//EN"
 "http://www.w3.org/TR/2001/REC-SVG-20010904/DTD/svg10.dtd">
<svg version="1.0" xmlns="http://www.w3.org/2000/svg"
 width="512.000000pt" height="512.000000pt" viewBox="0 0 512.000000 512.000000"
 preserveAspectRatio="xMidYMid meet">

<g transform="translate(0.000000,512.000000) scale(0.100000,-0.100000)"
fill="#000000" stroke="none">
<path d="M361 4949 c-172 -34 -318 -182 -351 -358 -14 -74 -14 -3088 0 -3162
34 -180 179 -325 359 -359 33 -6 308 -10 718 -10 628 0 664 -1 659 -17 -3 -10
-48 -144 -99 -298 l-94 -280 -269 -5 c-232 -4 -273 -7 -301 -23 -38 -20 -73
-82 -73 -127 0 -50 35 -107 80 -130 39 -20 56 -20 1570 -20 1514 0 1531 0
1570 20 45 23 80 80 80 130 0 45 -35 107 -73 127 -28 16 -69 19 -301 23 l-269
5 -94 280 c-51 154 -96 288 -99 298 -5 16 31 17 659 17 410 0 685 4 718 10
180 34 325 179 359 359 14 74 14 3088 0 3162 -34 180 -179 325 -359 359 -67
12 -4325 12 -4390 -1z m4379 -309 c26 -13 47 -34 60 -60 20 -39 20 -56 20
-1330 l0 -1290 -2260 0 -2260 0 0 1290 c0 1273 0 1291 20 1330 12 24 35 47 58
59 36 20 66 20 2180 21 2128 0 2143 0 2182 -20z m80 -3070 c0 -112 -20 -159
-80 -190 -39 -20 -54 -20 -2180 -20 -2126 0 -2141 0 -2180 20 -60 31 -80 78
-80 190 l0 90 2260 0 2260 0 0 -90z m-1673 -795 c51 -154 96 -288 99 -297 5
-17 -32 -18 -685 -18 -380 0 -691 1 -691 3 0 3 187 563 195 585 3 10 108 12
496 10 l492 -3 94 -280z"/>
<path d="M688 4339 c-23 -12 -46 -35 -58 -59 -20 -38 -20 -57 -20 -970 0 -913
0 -932 20 -970 13 -26 34 -47 60 -60 38 -19 58 -20 520 -20 462 0 482 1 520
20 26 13 47 34 60 60 20 38 20 57 20 970 0 913 0 932 -20 970 -13 26 -34 47
-60 60 -38 19 -57 20 -522 20 -461 -1 -485 -2 -520 -21z m822 -429 l0 -150
-300 0 -300 0 0 150 0 150 300 0 300 0 0 -150z m0 -600 l0 -150 -300 0 -300 0
0 150 0 150 300 0 300 0 0 -150z m0 -600 l0 -150 -300 0 -300 0 0 150 0 150
300 0 300 0 0 -150z"/>
<path d="M2188 4339 c-43 -22 -78 -81 -78 -129 0 -50 35 -107 80 -130 21 -11
53 -20 70 -20 76 0 150 74 150 150 0 50 -35 107 -80 130 -49 25 -94 25 -142
-1z"/>
<path d="M2788 4339 c-43 -22 -78 -81 -78 -129 0 -17 9 -49 20 -70 23 -45 80
-80 130 -80 50 0 107 35 130 80 11 21 20 53 20 70 0 50 -35 107 -80 130 -49
25 -94 25 -142 -1z"/>
<path d="M3388 4339 c-43 -22 -78 -81 -78 -129 0 -50 35 -107 80 -130 21 -11
53 -20 70 -20 50 0 107 35 130 80 11 21 20 53 20 70 0 50 -35 107 -80 130 -49
25 -94 25 -142 -1z"/>
<path d="M3971 4049 c-227 -44 -391 -278 -353 -505 32 -196 180 -344 376 -376
289 -48 556 219 508 508 -42 255 -281 422 -531 373z m159 -309 c45 -23 80 -80
80 -130 0 -50 -35 -107 -80 -130 -21 -11 -53 -20 -70 -20 -50 0 -107 35 -130
80 -25 50 -25 90 0 140 37 73 124 99 200 60z"/>
<path d="M2791 3442 c-27 -14 -92 -104 -341 -477 -169 -253 -314 -474 -323
-492 -48 -93 27 -213 133 -213 77 0 90 15 349 404 135 201 247 366 251 366 4
0 117 -166 253 -369 228 -342 249 -370 287 -385 83 -33 124 -15 257 116 l103
102 103 -101 c109 -107 147 -133 198 -133 73 0 149 78 149 152 0 21 -11 52
-29 79 -36 56 -315 331 -358 353 -75 38 -123 18 -250 -106 l-91 -90 -260 388
c-221 331 -265 392 -296 407 -45 21 -91 21 -135 -1z"/>
</g>
</svg>
