<?xml version="1.0" standalone="no"?>
<!DOCTYPE svg PUBLIC "-//W3C//DTD SVG 20010904//EN"
 "http://www.w3.org/TR/2001/REC-SVG-20010904/DTD/svg10.dtd">
<svg version="1.0" xmlns="http://www.w3.org/2000/svg"
 width="960.000000pt" height="306.000000pt" viewBox="0 0 960.000000 306.000000"
 preserveAspectRatio="xMidYMid meet">

<g transform="translate(0.000000,306.000000) scale(0.100000,-0.100000)"
fill="#000000" stroke="none">
<path d="M4430 3049 c-63 -19 -104 -55 -143 -124 -21 -39 -22 -50 -27 -438
l-5 -398 -63 40 c-136 88 -281 145 -447 177 -98 18 -285 15 -400 -6 -316 -59
-626 -280 -780 -555 -262 -467 -184 -1034 192 -1396 228 -220 497 -330 806
-330 310 0 594 118 810 336 174 175 282 385 329 640 19 105 19 1853 -1 1908
-37 107 -167 177 -271 146z m-702 -1214 c328 -85 539 -372 519 -709 -23 -418
-406 -711 -823 -631 -144 28 -312 131 -402 248 -50 65 -109 186 -127 264 -19
77 -18 242 0 323 52 222 236 420 460 495 111 37 255 41 373 10z"/>
<path d="M1043 2319 c-456 -44 -857 -373 -986 -809 -34 -115 -36 -126 -47
-241 -44 -459 215 -925 626 -1127 179 -88 330 -124 524 -124 149 0 241 15 377
62 467 162 774 591 774 1084 0 202 -30 336 -115 511 -179 367 -523 605 -932
645 -109 11 -106 11 -221 -1z m256 -483 c80 -18 208 -81 283 -141 158 -125
250 -320 250 -530 0 -102 -12 -160 -49 -255 -137 -346 -540 -520 -883 -381
-199 81 -340 232 -407 436 -34 103 -38 273 -9 375 52 181 192 356 346 433 145
72 318 95 469 63z"/>
<path d="M5789 2304 c-247 -44 -486 -174 -648 -351 -415 -452 -412 -1136 6
-1574 204 -214 438 -327 745 -359 239 -26 513 45 728 188 357 238 557 660 510
1078 -59 523 -440 929 -956 1019 -105 18 -282 18 -385 -1z m389 -478 c99 -30
162 -63 239 -125 306 -247 340 -708 73 -994 -39 -41 -96 -92 -127 -113 -149
-99 -342 -136 -514 -100 -326 69 -549 343 -549 671 0 124 19 205 71 314 33 68
58 101 128 171 188 189 428 251 679 176z"/>
<path d="M8228 2300 c-249 -52 -426 -147 -599 -319 -225 -226 -339 -499 -339
-815 0 -128 10 -199 45 -323 101 -351 385 -647 735 -766 133 -45 225 -60 370
-60 315 1 593 116 815 338 217 217 335 501 336 806 0 133 -11 212 -46 332
-121 419 -477 736 -911 812 -117 20 -297 18 -406 -5z m402 -473 c102 -29 135
-44 222 -109 161 -118 260 -302 275 -507 8 -119 -15 -229 -74 -350 -37 -78
-59 -109 -127 -176 -214 -214 -518 -264 -794 -129 -163 79 -289 226 -349 409
-22 67 -26 98 -26 195 0 79 5 135 17 179 75 276 292 468 581 515 59 9 192 -4
275 -27z"/>
</g>
</svg>
