<?xml version="1.0" standalone="no"?>
<!DOCTYPE svg PUBLIC "-//W3C//DTD SVG 20010904//EN"
 "http://www.w3.org/TR/2001/REC-SVG-20010904/DTD/svg10.dtd">
<svg version="1.0" xmlns="http://www.w3.org/2000/svg"
 width="512.000000pt" height="512.000000pt" viewBox="0 0 512.000000 512.000000"
 preserveAspectRatio="xMidYMid meet">

<g transform="translate(0.000000,512.000000) scale(0.100000,-0.100000)"
fill="#000000" stroke="none">
<path d="M452 5100 c-108 -28 -187 -75 -272 -160 -87 -86 -131 -162 -160 -276
-20 -76 -20 -118 -20 -2104 0 -1986 0 -2028 20 -2104 28 -112 73 -190 160
-276 86 -87 164 -132 276 -160 76 -20 118 -20 2104 -20 1986 0 2028 0 2104 20
114 29 190 73 276 160 87 87 132 165 160 276 20 76 20 118 20 2104 0 1986 0
2028 -20 2104 -28 111 -73 189 -160 276 -86 87 -162 131 -276 160 -76 20 -117
20 -2108 19 -1967 0 -2033 -1 -2104 -19z m4189 -306 c66 -31 114 -78 146 -142
l28 -57 3 -337 3 -338 -2261 0 -2260 0 0 318 c0 350 4 384 59 459 37 50 81 83
146 105 47 16 173 17 2070 15 l2020 -2 46 -21z m177 -2721 l-3 -1548 -28 -57
c-32 -64 -80 -111 -146 -142 l-46 -21 -2035 0 -2035 0 -46 21 c-66 31 -114 78
-146 142 l-28 57 -3 1548 -2 1547 2260 0 2260 0 -2 -1547z"/>
<path d="M678 4499 c-43 -22 -78 -81 -78 -129 0 -76 74 -150 150 -150 76 0
150 74 150 150 0 50 -35 107 -80 130 -49 25 -94 25 -142 -1z"/>
<path d="M1278 4499 c-43 -22 -78 -81 -78 -129 0 -50 35 -107 80 -130 21 -11
53 -20 70 -20 76 0 150 74 150 150 0 50 -35 107 -80 130 -49 25 -94 25 -142
-1z"/>
<path d="M1878 4499 c-43 -22 -78 -81 -78 -129 0 -50 35 -107 80 -130 39 -20
56 -20 1280 -20 1224 0 1241 0 1280 20 45 23 80 80 80 130 0 50 -35 107 -80
130 -39 20 -56 20 -1282 20 -1218 -1 -1244 -1 -1280 -21z"/>
<path d="M780 3309 c-104 -41 -128 -175 -45 -248 20 -17 37 -32 38 -33 1 -1
117 -4 256 -7 l255 -6 203 -846 204 -846 -30 -49 c-81 -131 -80 -316 2 -453
149 -249 493 -293 698 -91 118 116 161 272 123 442 l-6 28 277 0 277 0 -6 -22
c-4 -13 -9 -57 -13 -98 -18 -231 142 -432 376 -472 242 -41 471 127 514 377
20 115 -19 255 -98 350 l-34 42 125 389 c68 214 129 418 135 453 19 120 -18
264 -95 369 -51 69 -99 110 -177 152 -114 60 -101 60 -1155 60 l-960 0 -52
218 c-56 231 -67 255 -129 286 -27 14 -79 16 -345 15 -182 0 -323 -4 -338 -10z
m2805 -820 c61 -17 130 -91 143 -154 14 -65 16 -58 -119 -481 l-113 -354 -770
2 -770 3 -118 485 c-65 267 -118 491 -118 498 0 16 1804 18 1865 1z m-1464
-1311 c41 -23 79 -84 79 -128 0 -73 -78 -150 -151 -150 -84 1 -153 78 -146
161 10 112 121 172 218 117z m1410 0 c41 -23 79 -84 79 -128 0 -73 -78 -150
-151 -150 -84 1 -153 78 -146 161 10 112 121 172 218 117z"/>
</g>
</svg>
