<?xml version="1.0" standalone="no"?>
<!DOCTYPE svg PUBLIC "-//W3C//DTD SVG 20010904//EN"
 "http://www.w3.org/TR/2001/REC-SVG-20010904/DTD/svg10.dtd">
<svg version="1.0" xmlns="http://www.w3.org/2000/svg"
 width="512.000000pt" height="511.000000pt" viewBox="0 0 512.000000 511.000000"
 preserveAspectRatio="xMidYMid meet">

<g transform="translate(0.000000,511.000000) scale(0.100000,-0.100000)"
fill="#000000" stroke="none">
<path d="M325 5086 c-168 -53 -288 -191 -317 -363 -31 -185 63 -372 232 -462
l60 -32 0 -1684 0 -1684 -60 -32 c-169 -90 -263 -277 -232 -462 24 -140 110
-261 235 -328 60 -32 67 -34 190 -37 105 -3 137 -1 175 14 96 36 192 121 240
211 l27 53 1685 0 1685 0 27 -53 c48 -90 144 -175 240 -211 38 -15 70 -17 175
-14 123 3 130 5 190 37 128 69 213 189 235 334 28 185 -64 367 -232 456 l-60
32 0 1312 c0 1229 -1 1314 -18 1347 -53 107 -211 107 -264 0 -16 -32 -18 -74
-18 -422 l0 -387 -392 -3 c-372 -3 -395 -4 -427 -23 -55 -32 -76 -69 -76 -130
0 -61 21 -98 76 -130 32 -19 55 -20 427 -23 l392 -3 0 -769 0 -769 -60 -32
c-75 -40 -149 -113 -186 -184 l-29 -55 -762 0 -763 0 0 548 c0 501 -2 550 -18
582 -53 107 -211 107 -264 0 -16 -32 -18 -81 -18 -582 l0 -548 -772 0 -773 0
-29 55 c-37 71 -111 144 -186 184 l-60 32 0 769 0 769 553 3 c531 3 553 4 586
23 55 32 76 69 76 130 0 61 -21 98 -76 130 -33 19 -55 20 -586 23 l-553 3 0
759 0 759 60 32 c75 40 149 113 186 184 l29 55 773 0 772 0 0 -387 c0 -433 0
-434 69 -480 71 -48 175 -20 213 57 16 32 18 74 18 422 l0 387 393 3 c371 3
394 4 426 23 55 32 76 69 76 130 0 61 -21 98 -76 130 -33 20 -54 20 -1349 23
l-1315 2 -27 53 c-52 98 -150 180 -256 216 -71 24 -202 28 -267 7z m206 -309
c89 -59 89 -185 0 -244 -71 -48 -175 -20 -213 57 -50 98 21 210 132 210 32 0
58 -7 81 -23z m0 -4220 c89 -59 89 -185 0 -244 -71 -48 -175 -20 -213 57 -50
98 21 210 132 210 32 0 58 -7 81 -23z m4220 0 c39 -26 69 -79 69 -122 0 -16
-8 -46 -18 -65 -53 -107 -211 -107 -264 0 -50 98 21 210 132 210 32 0 58 -7
81 -23z"/>
<path d="M4535 5083 c-28 -10 -73 -31 -100 -47 -61 -35 -2194 -2160 -2230
-2221 -12 -22 -66 -173 -120 -335 l-97 -295 -103 -105 c-116 -118 -125 -132
-125 -190 0 -74 48 -133 117 -146 65 -12 101 8 213 121 l104 105 321 106 320
106 1101 1102 c986 986 1104 1108 1132 1163 114 233 25 496 -207 611 -68 34
-82 37 -175 40 -77 2 -113 -2 -151 -15z m205 -298 c62 -32 92 -105 72 -173 -7
-23 -36 -61 -77 -102 l-65 -65 -105 105 -105 105 53 53 c28 30 66 63 82 73 36
23 105 25 145 4z m-995 -1265 l-710 -710 -105 105 -105 105 710 710 710 710
105 -105 105 -105 -710 -710z m-1000 -999 l-80 -79 -152 -50 c-84 -28 -153
-47 -153 -43 0 4 23 74 50 156 l50 150 77 77 78 78 105 -105 105 -105 -80 -79z"/>
</g>
</svg>
